<svg width="155" height="32" viewBox="0 0 155 32" fill="none" xmlns="http://www.w3.org/2000/svg">
<path d="M30 8.58032C30 8.22147 29.8077 7.89012 29.4961 7.71208L16.4961 0.283508C16.1887 0.107832 15.8113 0.107831 15.5039 0.283507L6.0043 5.71183L8.62124 7.20723L15.7519 3.13255C15.9056 3.04471 16.0944 3.04471 16.2481 3.13255L26.1216 8.77455L19.9157 12.3208L19.8954 7.80684L17.2717 6.30757L17.3119 15.2563L25.1167 19.7622V16.7636L21.2655 14.5403L27.3831 11.0445V11.0631L30 9.56768V8.58032Z" fill="#C0D5FF"/>
<path d="M30 12.5585L27.3831 14.0539V22.2144C27.3831 22.3939 27.2869 22.5595 27.1311 22.6486L17.3085 28.2615V21.3397L21.1182 23.4944L23.7419 21.9951L16.0002 17.6166L8.25819 21.9952L10.8819 23.4945L14.6916 21.3399V31.2523L15.5039 31.7165C15.8113 31.8922 16.1887 31.8922 16.4961 31.7165L29.4961 24.2879C29.8077 24.1099 30 23.7785 30 23.4197V12.5585Z" fill="#C0D5FF"/>
<path d="M12.0746 26.7661V29.7569L2.50386 24.2879C2.19229 24.1099 2 23.7785 2 23.4197V8.58032C2 8.22147 2.19229 7.89012 2.50386 7.71208L3.38735 7.20723L6.0043 8.70263L5.99053 8.7105L12.0476 12.1717L12.0671 7.82822L14.6909 6.32896L14.6507 15.2563L6.88327 19.7406V16.7421L10.8272 14.4651L4.61695 10.9164V22.2144C4.61695 22.3939 4.71309 22.5595 4.86888 22.6486L12.0746 26.7661Z" fill="#C0D5FF"/>
<path d="M52.8594 24.7344C51.3359 24.7344 49.9648 24.3789 48.7461 23.668C47.5352 22.957 46.5781 21.9336 45.875 20.5977C45.1797 19.2617 44.832 17.6562 44.832 15.7812C44.832 13.8984 45.1797 12.2891 45.875 10.9531C46.5781 9.60938 47.5352 8.58203 48.7461 7.87109C49.9648 7.16016 51.3359 6.80469 52.8594 6.80469C54.3906 6.80469 55.7578 7.16016 56.9609 7.87109C58.1641 8.58203 59.1172 9.60938 59.8203 10.9531C60.5234 12.2891 60.875 13.8984 60.875 15.7812C60.875 17.6562 60.5234 19.2617 59.8203 20.5977C59.1172 21.9336 58.1641 22.957 56.9609 23.668C55.7578 24.3789 54.3906 24.7344 52.8594 24.7344ZM52.8594 21.8984C53.8047 21.8984 54.6406 21.6641 55.3672 21.1953C56.0938 20.7266 56.6641 20.0391 57.0781 19.1328C57.4922 18.2188 57.6992 17.1016 57.6992 15.7812C57.6992 14.4531 57.4922 13.332 57.0781 12.418C56.6641 11.5039 56.0938 10.8125 55.3672 10.3438C54.6406 9.875 53.8047 9.64062 52.8594 9.64062C51.9141 9.64062 51.0742 9.875 50.3398 10.3438C49.6133 10.8125 49.043 11.5039 48.6289 12.418C48.2148 13.332 48.0078 14.4531 48.0078 15.7812C48.0078 17.1016 48.2148 18.2188 48.6289 19.1328C49.043 20.0391 49.6133 20.7266 50.3398 21.1953C51.0742 21.6641 51.9141 21.8984 52.8594 21.8984ZM68.5039 29.6797C66.8398 29.6797 65.5312 29.3555 64.5781 28.707C63.625 28.0664 63.0117 27.2891 62.7383 26.375L65.5039 25.6953C65.6289 25.9531 65.8125 26.207 66.0547 26.457C66.2969 26.7148 66.6211 26.9258 67.0273 27.0898C67.4336 27.2617 67.9453 27.3477 68.5625 27.3477C69.4375 27.3477 70.1602 27.1328 70.7305 26.7031C71.3086 26.2812 71.5977 25.5898 71.5977 24.6289V22.1562H71.4219C71.2734 22.4688 71.0469 22.793 70.7422 23.1289C70.4375 23.457 70.0352 23.7383 69.5352 23.9727C69.043 24.1992 68.418 24.3125 67.6602 24.3125C66.6602 24.3125 65.75 24.0742 64.9297 23.5977C64.1172 23.1211 63.4688 22.4102 62.9844 21.4648C62.5078 20.5195 62.2695 19.3359 62.2695 17.9141C62.2695 16.4766 62.5078 15.2617 62.9844 14.2695C63.4688 13.2773 64.1211 12.5234 64.9414 12.0078C65.7617 11.4922 66.6758 11.2344 67.6836 11.2344C68.4492 11.2344 69.082 11.3633 69.582 11.6211C70.082 11.8789 70.4805 12.1914 70.7773 12.5586C71.0742 12.918 71.3047 13.2539 71.4688 13.5664H71.6328V11.3984H74.6445V24.7109C74.6445 25.8281 74.3789 26.7539 73.8477 27.4883C73.3164 28.2227 72.5859 28.7695 71.6562 29.1289C70.7344 29.4961 69.6836 29.6797 68.5039 29.6797ZM68.5273 21.8867C69.5117 21.8867 70.2695 21.5352 70.8008 20.832C71.3398 20.1211 71.6094 19.1406 71.6094 17.8906C71.6094 17.0625 71.4922 16.3398 71.2578 15.7227C71.0234 15.1055 70.6758 14.625 70.2148 14.2812C69.7539 13.9375 69.1914 13.7656 68.5273 13.7656C67.8398 13.7656 67.2656 13.9453 66.8047 14.3047C66.3438 14.6641 65.9961 15.1562 65.7617 15.7812C65.5352 16.3984 65.4219 17.1016 65.4219 17.8906C65.4219 18.6875 65.5391 19.3867 65.7734 19.9883C66.0078 20.5898 66.3555 21.0586 66.8164 21.3945C67.2852 21.7227 67.8555 21.8867 68.5273 21.8867ZM82.625 24.7578C81.3438 24.7578 80.2344 24.4766 79.2969 23.9141C78.3594 23.3516 77.6328 22.5625 77.1172 21.5469C76.6094 20.5312 76.3555 19.3516 76.3555 18.0078C76.3555 16.6562 76.6094 15.4727 77.1172 14.457C77.6328 13.4336 78.3594 12.6406 79.2969 12.0781C80.2344 11.5156 81.3438 11.2344 82.625 11.2344C83.9062 11.2344 85.0156 11.5156 85.9531 12.0781C86.8906 12.6406 87.6172 13.4336 88.1328 14.457C88.6484 15.4727 88.9062 16.6562 88.9062 18.0078C88.9062 19.3516 88.6484 20.5312 88.1328 21.5469C87.6172 22.5625 86.8906 23.3516 85.9531 23.9141C85.0156 24.4766 83.9062 24.7578 82.625 24.7578ZM82.625 22.2734C83.3359 22.2734 83.9219 22.0859 84.3828 21.7109C84.8438 21.3281 85.1875 20.8125 85.4141 20.1641C85.6484 19.5156 85.7656 18.7969 85.7656 18.0078C85.7656 17.2031 85.6484 16.4766 85.4141 15.8281C85.1875 15.1797 84.8438 14.668 84.3828 14.293C83.9219 13.9102 83.3359 13.7188 82.625 13.7188C81.9297 13.7188 81.3477 13.9102 80.8789 14.293C80.4102 14.668 80.0586 15.1797 79.8242 15.8281C79.5977 16.4766 79.4844 17.2031 79.4844 18.0078C79.4844 18.7969 79.5977 19.5156 79.8242 20.1641C80.0586 20.8125 80.4102 21.3281 80.8789 21.7109C81.3477 22.0859 81.9297 22.2734 82.625 22.2734ZM96.3125 24.7578C95.0078 24.7578 93.8867 24.4727 92.9492 23.9023C92.0117 23.3242 91.293 22.5273 90.793 21.5117C90.293 20.4961 90.043 19.3281 90.043 18.0078C90.043 16.6719 90.2969 15.4961 90.8047 14.4805C91.3125 13.4648 92.0352 12.6719 92.9727 12.1016C93.9102 11.5234 95.0156 11.2344 96.2891 11.2344C97.3594 11.2344 98.3047 11.4297 99.125 11.8203C99.9453 12.2109 100.598 12.7617 101.082 13.4727C101.574 14.1758 101.855 15 101.926 15.9453H98.9727C98.8945 15.5234 98.7422 15.1445 98.5156 14.8086C98.2891 14.4727 97.9922 14.207 97.625 14.0117C97.2656 13.8164 96.8359 13.7188 96.3359 13.7188C95.7031 13.7188 95.1484 13.8906 94.6719 14.2344C94.2031 14.5703 93.8359 15.0547 93.5703 15.6875C93.3047 16.3203 93.1719 17.0781 93.1719 17.9609C93.1719 18.8516 93.3008 19.6211 93.5586 20.2695C93.8164 20.9102 94.1836 21.4062 94.6602 21.7578C95.1367 22.1016 95.6953 22.2734 96.3359 22.2734C97.0156 22.2734 97.5898 22.0742 98.0586 21.6758C98.5352 21.2773 98.8398 20.7266 98.9727 20.0234H101.926C101.855 20.9531 101.582 21.7734 101.105 22.4844C100.629 23.1953 99.9844 23.7539 99.1719 24.1602C98.3594 24.5586 97.4062 24.7578 96.3125 24.7578ZM106.672 16.8359V24.5H103.59V7.03906H106.602V13.6367H106.766C107.07 12.8945 107.543 12.3086 108.184 11.8789C108.824 11.4492 109.648 11.2344 110.656 11.2344C111.562 11.2344 112.352 11.4258 113.023 11.8086C113.703 12.1914 114.23 12.75 114.605 13.4844C114.98 14.2188 115.168 15.1133 115.168 16.168V24.5H112.074V16.6484C112.074 15.7578 111.848 15.0703 111.395 14.5859C110.941 14.0938 110.309 13.8477 109.496 13.8477C108.949 13.8477 108.461 13.9648 108.031 14.1992C107.609 14.4336 107.277 14.7734 107.035 15.2188C106.793 15.6562 106.672 16.1953 106.672 16.8359ZM125.785 19.0039V11.3984H128.867V24.5H125.879V22.168H125.738C125.441 22.9023 124.957 23.5039 124.285 23.9727C123.613 24.4414 122.785 24.6719 121.801 24.6641C120.941 24.6641 120.184 24.4766 119.527 24.1016C118.879 23.7188 118.367 23.1602 117.992 22.4258C117.625 21.6836 117.441 20.7891 117.441 19.7422V11.3984H120.523V19.2734C120.523 20.0938 120.75 20.75 121.203 21.2422C121.664 21.7344 122.266 21.9766 123.008 21.9688C123.461 21.9688 123.898 21.8594 124.32 21.6406C124.75 21.4219 125.102 21.0938 125.375 20.6562C125.648 20.2188 125.785 19.668 125.785 19.0039ZM133.965 20.3984L133.953 16.6602H134.457L139.156 11.3984H142.766L136.977 17.8555H136.332L133.965 20.3984ZM131.152 24.5V7.03906H134.234V24.5H131.152ZM139.367 24.5L135.102 18.5469L137.188 16.3672L143.059 24.5H139.367ZM154.238 14.8789L151.438 15.1719C151.32 14.7422 151.066 14.3633 150.676 14.0352C150.285 13.6992 149.734 13.5312 149.023 13.5312C148.383 13.5312 147.844 13.6719 147.406 13.9531C146.977 14.2344 146.762 14.5938 146.762 15.0312C146.762 15.4141 146.902 15.7305 147.184 15.9805C147.473 16.2227 147.949 16.418 148.613 16.5664L150.852 17.0352C152.078 17.293 152.996 17.7148 153.605 18.3008C154.215 18.8867 154.52 19.6445 154.52 20.5742C154.52 21.3945 154.281 22.1211 153.805 22.7539C153.328 23.3867 152.668 23.8789 151.824 24.2305C150.988 24.582 150.023 24.7578 148.93 24.7578C147.328 24.7578 146.039 24.4219 145.062 23.75C144.094 23.0703 143.512 22.1289 143.316 20.9258L146.328 20.6445C146.461 21.2305 146.75 21.6758 147.195 21.9805C147.648 22.2773 148.227 22.4258 148.93 22.4258C149.664 22.4258 150.254 22.2773 150.699 21.9805C151.145 21.6758 151.367 21.3047 151.367 20.8672C151.367 20.1328 150.781 19.6328 149.609 19.3672L147.371 18.8984C146.113 18.625 145.184 18.1836 144.582 17.5742C143.98 16.957 143.68 16.1719 143.68 15.2188C143.68 14.4062 143.902 13.7031 144.348 13.1094C144.793 12.5156 145.414 12.0547 146.211 11.7266C147.008 11.3984 147.93 11.2344 148.977 11.2344C150.516 11.2344 151.723 11.5664 152.598 12.2305C153.48 12.8867 154.027 13.7695 154.238 14.8789Z" fill="white"/>
</svg>
